<svg xmlns="http://www.w3.org/2000/svg" width="710" height="362" viewBox="185 595 710 362"><polygon points="880.8,766.4065 883.5672,768.0236 885.7934,769.8369 887.4239,771.8016 888.4186,773.8695 888.7529,775.9896 888.4186,778.1096 887.4239,780.1775 885.7934,782.1423 883.5672,783.9555 880.8,785.5726 559.2,946.089 555.9601,947.4701 552.3272,948.5813 548.3907,949.3951 544.2476,949.8916 540,950.0584 535.7524,949.8916 531.6093,949.3951 527.6728,948.5813 524.0399,947.4701 520.8,946.089 199.2,785.5726 196.4328,783.9555 194.2066,782.1423 192.5761,780.1775 191.5814,778.1096 191.2471,775.9896 191.5814,773.8695 192.5761,771.8016 194.2066,769.8369 196.4328,768.0236 199.2,766.4065 520.8,605.8901 524.0399,604.509 527.6728,603.3978 531.6093,602.584 535.7524,602.0875 540,601.9207 544.2476,602.0875 548.3907,602.584 552.3272,603.3978 555.9601,604.509 559.2,605.8901" fill="#233c60" stroke="#233c60" stroke-width=".65" stroke-linejoin="round" shape-rendering="crispEdges"/><polyline points="873.12,766.8268 875.7488,768.3631" fill="none" stroke="#c6a05e" stroke-width="1.15" stroke-linecap="round"/><polyline points="875.7488,768.3631 877.8637,770.0857" fill="none" stroke="#c6a05e" stroke-width="1.15" stroke-linecap="round"/><polyline points="877.8637,770.0857 879.4127,771.9522" fill="none" stroke="#c6a05e" stroke-width="1.15" stroke-linecap="round"/><polyline points="879.4127,771.9522 880.3577,773.9167" fill="none" stroke="#c6a05e" stroke-width="1.15" stroke-linecap="round"/><polyline points="880.3577,773.9167 880.6753,775.9307" fill="none" stroke="#c6a05e" stroke-width="1.15" stroke-linecap="round"/><polyline points="880.6753,775.9307 880.3577,777.9448" fill="none" stroke="#c6a05e" stroke-width="1.15" stroke-linecap="round"/><polyline points="880.3577,777.9448 879.4127,779.9093" fill="none" stroke="#c6a05e" stroke-width="1.15" stroke-linecap="round"/><polyline points="879.4127,779.9093 877.8637,781.7758" fill="none" stroke="#c6a05e" stroke-width="1.15" stroke-linecap="round"/><polyline points="877.8637,781.7758 875.7488,783.4984" fill="none" stroke="#c6a05e" stroke-width="1.15" stroke-linecap="round"/><polyline points="875.7488,783.4984 873.12,785.0347" fill="none" stroke="#c6a05e" stroke-width="1.15" stroke-linecap="round"/><polyline points="873.12,785.0347 558.24,942.1969" fill="none" stroke="#c6a05e" stroke-width="1.15" stroke-linecap="round"/><polyline points="558.24,942.1969 555.1621,943.509" fill="none" stroke="#c6a05e" stroke-width="1.15" stroke-linecap="round"/><polyline points="555.1621,943.509 551.7108,944.5646" fill="none" stroke="#c6a05e" stroke-width="1.15" stroke-linecap="round"/><polyline points="551.7108,944.5646 547.9712,945.3378" fill="none" stroke="#c6a05e" stroke-width="1.15" stroke-linecap="round"/><polyline points="547.9712,945.3378 544.0353,945.8094" fill="none" stroke="#c6a05e" stroke-width="1.15" stroke-linecap="round"/><polyline points="544.0353,945.8094 540,945.9679" fill="none" stroke="#c6a05e" stroke-width="1.15" stroke-linecap="round"/><polyline points="540,945.9679 535.9647,945.8094" fill="none" stroke="#c6a05e" stroke-width="1.15" stroke-linecap="round"/><polyline points="535.9647,945.8094 532.0288,945.3378" fill="none" stroke="#c6a05e" stroke-width="1.15" stroke-linecap="round"/><polyline points="532.0288,945.3378 528.2892,944.5646" fill="none" stroke="#c6a05e" stroke-width="1.15" stroke-linecap="round"/><polyline points="528.2892,944.5646 524.8379,943.509" fill="none" stroke="#c6a05e" stroke-width="1.15" stroke-linecap="round"/><polyline points="524.8379,943.509 521.76,942.1969" fill="none" stroke="#c6a05e" stroke-width="1.15" stroke-linecap="round"/><polyline points="521.76,942.1969 206.88,785.0347" fill="none" stroke="#c6a05e" stroke-width="1.15" stroke-linecap="round"/><polyline points="206.88,785.0347 204.2512,783.4984" fill="none" stroke="#c6a05e" stroke-width="1.15" stroke-linecap="round"/><polyline points="204.2512,783.4984 202.1363,781.7758" fill="none" stroke="#c6a05e" stroke-width="1.15" stroke-linecap="round"/><polyline points="202.1363,781.7758 200.5873,779.9093" fill="none" stroke="#c6a05e" stroke-width="1.15" stroke-linecap="round"/><polyline points="200.5873,779.9093 199.6423,777.9448" fill="none" stroke="#c6a05e" stroke-width="1.15" stroke-linecap="round"/><polyline points="199.6423,777.9448 199.3247,775.9307" fill="none" stroke="#c6a05e" stroke-width="1.15" stroke-linecap="round"/><polyline points="199.3247,775.9307 199.6423,773.9167" fill="none" stroke="#c6a05e" stroke-width="1.15" stroke-linecap="round"/><polyline points="199.6423,773.9167 200.5873,771.9522" fill="none" stroke="#c6a05e" stroke-width="1.15" stroke-linecap="round"/><polyline points="200.5873,771.9522 202.1363,770.0857" fill="none" stroke="#c6a05e" stroke-width="1.15" stroke-linecap="round"/><polyline points="202.1363,770.0857 204.2512,768.3631" fill="none" stroke="#c6a05e" stroke-width="1.15" stroke-linecap="round"/><polyline points="204.2512,768.3631 206.88,766.8268" fill="none" stroke="#c6a05e" stroke-width="1.15" stroke-linecap="round"/><polyline points="206.88,766.8268 521.76,609.6645" fill="none" stroke="#c6a05e" stroke-width="1.15" stroke-linecap="round"/><polyline points="521.76,609.6645 524.8379,608.3525" fill="none" stroke="#c6a05e" stroke-width="1.15" stroke-linecap="round"/><polyline points="524.8379,608.3525 528.2892,607.2968" fill="none" stroke="#c6a05e" stroke-width="1.15" stroke-linecap="round"/><polyline points="528.2892,607.2968 532.0288,606.5237" fill="none" stroke="#c6a05e" stroke-width="1.15" stroke-linecap="round"/><polyline points="532.0288,606.5237 535.9647,606.0521" fill="none" stroke="#c6a05e" stroke-width="1.15" stroke-linecap="round"/><polyline points="535.9647,606.0521 540,605.8936" fill="none" stroke="#c6a05e" stroke-width="1.15" stroke-linecap="round"/><polyline points="540,605.8936 544.0353,606.0521" fill="none" stroke="#c6a05e" stroke-width="1.15" stroke-linecap="round"/><polyline points="544.0353,606.0521 547.9712,606.5237" fill="none" stroke="#c6a05e" stroke-width="1.15" stroke-linecap="round"/><polyline points="547.9712,606.5237 551.7108,607.2968" fill="none" stroke="#c6a05e" stroke-width="1.15" stroke-linecap="round"/><polyline points="551.7108,607.2968 555.1621,608.3525" fill="none" stroke="#c6a05e" stroke-width="1.15" stroke-linecap="round"/><polyline points="555.1621,608.3525 558.24,609.6645" fill="none" stroke="#c6a05e" stroke-width="1.15" stroke-linecap="round"/><polyline points="558.24,609.6645 873.12,766.8268" fill="none" stroke="#c6a05e" stroke-width="1.15" stroke-linecap="round"/><polyline points="865.44,766.8268 868.0688,768.3631" fill="none" stroke="#c6a05e" stroke-width="0.6" stroke-linecap="round"/><polyline points="868.0688,768.3631 870.1837,770.0857" fill="none" stroke="#c6a05e" stroke-width="0.6" stroke-linecap="round"/><polyline points="870.1837,770.0857 871.7327,771.9522" fill="none" stroke="#c6a05e" stroke-width="0.6" stroke-linecap="round"/><polyline points="871.7327,771.9522 872.6777,773.9167" fill="none" stroke="#c6a05e" stroke-width="0.6" stroke-linecap="round"/><polyline points="872.6777,773.9167 872.9953,775.9307" fill="none" stroke="#c6a05e" stroke-width="0.6" stroke-linecap="round"/><polyline points="872.9953,775.9307 872.6777,777.9448" fill="none" stroke="#c6a05e" stroke-width="0.6" stroke-linecap="round"/><polyline points="872.6777,777.9448 871.7327,779.9093" fill="none" stroke="#c6a05e" stroke-width="0.6" stroke-linecap="round"/><polyline points="871.7327,779.9093 870.1837,781.7758" fill="none" stroke="#c6a05e" stroke-width="0.6" stroke-linecap="round"/><polyline points="870.1837,781.7758 868.0688,783.4984" fill="none" stroke="#c6a05e" stroke-width="0.6" stroke-linecap="round"/><polyline points="868.0688,783.4984 865.44,785.0347" fill="none" stroke="#c6a05e" stroke-width="0.6" stroke-linecap="round"/><polyline points="865.44,785.0347 558.24,938.3637" fill="none" stroke="#c6a05e" stroke-width="0.6" stroke-linecap="round"/><polyline points="558.24,938.3637 555.1621,939.6758" fill="none" stroke="#c6a05e" stroke-width="0.6" stroke-linecap="round"/><polyline points="555.1621,939.6758 551.7108,940.7314" fill="none" stroke="#c6a05e" stroke-width="0.6" stroke-linecap="round"/><polyline points="551.7108,940.7314 547.9712,941.5045" fill="none" stroke="#c6a05e" stroke-width="0.6" stroke-linecap="round"/><polyline points="547.9712,941.5045 544.0353,941.9762" fill="none" stroke="#c6a05e" stroke-width="0.6" stroke-linecap="round"/><polyline points="544.0353,941.9762 540,942.1347" fill="none" stroke="#c6a05e" stroke-width="0.6" stroke-linecap="round"/><polyline points="540,942.1347 535.9647,941.9762" fill="none" stroke="#c6a05e" stroke-width="0.6" stroke-linecap="round"/><polyline points="535.9647,941.9762 532.0288,941.5045" fill="none" stroke="#c6a05e" stroke-width="0.6" stroke-linecap="round"/><polyline points="532.0288,941.5045 528.2892,940.7314" fill="none" stroke="#c6a05e" stroke-width="0.6" stroke-linecap="round"/><polyline points="528.2892,940.7314 524.8379,939.6758" fill="none" stroke="#c6a05e" stroke-width="0.6" stroke-linecap="round"/><polyline points="524.8379,939.6758 521.76,938.3637" fill="none" stroke="#c6a05e" stroke-width="0.6" stroke-linecap="round"/><polyline points="521.76,938.3637 214.56,785.0347" fill="none" stroke="#c6a05e" stroke-width="0.6" stroke-linecap="round"/><polyline points="214.56,785.0347 211.9312,783.4984" fill="none" stroke="#c6a05e" stroke-width="0.6" stroke-linecap="round"/><polyline points="211.9312,783.4984 209.8163,781.7758" fill="none" stroke="#c6a05e" stroke-width="0.6" stroke-linecap="round"/><polyline points="209.8163,781.7758 208.2673,779.9093" fill="none" stroke="#c6a05e" stroke-width="0.6" stroke-linecap="round"/><polyline points="208.2673,779.9093 207.3223,777.9448" fill="none" stroke="#c6a05e" stroke-width="0.6" stroke-linecap="round"/><polyline points="207.3223,777.9448 207.0047,775.9307" fill="none" stroke="#c6a05e" stroke-width="0.6" stroke-linecap="round"/><polyline points="207.0047,775.9307 207.3223,773.9167" fill="none" stroke="#c6a05e" stroke-width="0.6" stroke-linecap="round"/><polyline points="207.3223,773.9167 208.2673,771.9522" fill="none" stroke="#c6a05e" stroke-width="0.6" stroke-linecap="round"/><polyline points="208.2673,771.9522 209.8163,770.0857" fill="none" stroke="#c6a05e" stroke-width="0.6" stroke-linecap="round"/><polyline points="209.8163,770.0857 211.9312,768.3631" fill="none" stroke="#c6a05e" stroke-width="0.6" stroke-linecap="round"/><polyline points="211.9312,768.3631 214.56,766.8268" fill="none" stroke="#c6a05e" stroke-width="0.6" stroke-linecap="round"/><polyline points="214.56,766.8268 521.76,613.4978" fill="none" stroke="#c6a05e" stroke-width="0.6" stroke-linecap="round"/><polyline points="521.76,613.4978 524.8379,612.1857" fill="none" stroke="#c6a05e" stroke-width="0.6" stroke-linecap="round"/><polyline points="524.8379,612.1857 528.2892,611.1301" fill="none" stroke="#c6a05e" stroke-width="0.6" stroke-linecap="round"/><polyline points="528.2892,611.1301 532.0288,610.3569" fill="none" stroke="#c6a05e" stroke-width="0.6" stroke-linecap="round"/><polyline points="532.0288,610.3569 535.9647,609.8853" fill="none" stroke="#c6a05e" stroke-width="0.6" stroke-linecap="round"/><polyline points="535.9647,609.8853 540,609.7268" fill="none" stroke="#c6a05e" stroke-width="0.6" stroke-linecap="round"/><polyline points="540,609.7268 544.0353,609.8853" fill="none" stroke="#c6a05e" stroke-width="0.6" stroke-linecap="round"/><polyline points="544.0353,609.8853 547.9712,610.3569" fill="none" stroke="#c6a05e" stroke-width="0.6" stroke-linecap="round"/><polyline points="547.9712,610.3569 551.7108,611.1301" fill="none" stroke="#c6a05e" stroke-width="0.6" stroke-linecap="round"/><polyline points="551.7108,611.1301 555.1621,612.1857" fill="none" stroke="#c6a05e" stroke-width="0.6" stroke-linecap="round"/><polyline points="555.1621,612.1857 558.24,613.4978" fill="none" stroke="#c6a05e" stroke-width="0.6" stroke-linecap="round"/><polyline points="558.24,613.4978 865.44,766.8268" fill="none" stroke="#c6a05e" stroke-width="0.6" stroke-linecap="round"/><polyline points="597.6,804.6799 593.7095,806.4987" fill="none" stroke="#c6a05e" stroke-width="0.6" stroke-linecap="round"/><polyline points="593.7095,806.4987 589.5889,808.1865" fill="none" stroke="#c6a05e" stroke-width="0.6" stroke-linecap="round"/><polyline points="589.5889,808.1865 585.256,809.7362" fill="none" stroke="#c6a05e" stroke-width="0.6" stroke-linecap="round"/><polyline points="585.256,809.7362 580.7294,811.1412" fill="none" stroke="#c6a05e" stroke-width="0.6" stroke-linecap="round"/><polyline points="580.7294,811.1412 576.0283,812.3954" fill="none" stroke="#c6a05e" stroke-width="0.6" stroke-linecap="round"/><polyline points="576.0283,812.3954 571.1729,813.4934" fill="none" stroke="#c6a05e" stroke-width="0.6" stroke-linecap="round"/><polyline points="571.1729,813.4934 566.184,814.4306" fill="none" stroke="#c6a05e" stroke-width="0.6" stroke-linecap="round"/><polyline points="566.184,814.4306 561.0831,815.2029" fill="none" stroke="#c6a05e" stroke-width="0.6" stroke-linecap="round"/><polyline points="561.0831,815.2029 555.8918,815.807" fill="none" stroke="#c6a05e" stroke-width="0.6" stroke-linecap="round"/><polyline points="555.8918,815.807 550.6325,816.2404" fill="none" stroke="#c6a05e" stroke-width="0.6" stroke-linecap="round"/><polyline points="550.6325,816.2404 545.3277,816.5012" fill="none" stroke="#c6a05e" stroke-width="0.6" stroke-linecap="round"/><polyline points="545.3277,816.5012 540,816.5882" fill="none" stroke="#c6a05e" stroke-width="0.6" stroke-linecap="round"/><polyline points="540,816.5882 534.6723,816.5012" fill="none" stroke="#c6a05e" stroke-width="0.6" stroke-linecap="round"/><polyline points="534.6723,816.5012 529.3675,816.2404" fill="none" stroke="#c6a05e" stroke-width="0.6" stroke-linecap="round"/><polyline points="529.3675,816.2404 524.1082,815.807" fill="none" stroke="#c6a05e" stroke-width="0.6" stroke-linecap="round"/><polyline points="524.1082,815.807 518.9169,815.2029" fill="none" stroke="#c6a05e" stroke-width="0.6" stroke-linecap="round"/><polyline points="518.9169,815.2029 513.816,814.4306" fill="none" stroke="#c6a05e" stroke-width="0.6" stroke-linecap="round"/><polyline points="513.816,814.4306 508.8271,813.4934" fill="none" stroke="#c6a05e" stroke-width="0.6" stroke-linecap="round"/><polyline points="508.8271,813.4934 503.9717,812.3954" fill="none" stroke="#c6a05e" stroke-width="0.6" stroke-linecap="round"/><polyline points="503.9717,812.3954 499.2706,811.1412" fill="none" stroke="#c6a05e" stroke-width="0.6" stroke-linecap="round"/><polyline points="499.2706,811.1412 494.744,809.7362" fill="none" stroke="#c6a05e" stroke-width="0.6" stroke-linecap="round"/><polyline points="494.744,809.7362 490.4111,808.1865" fill="none" stroke="#c6a05e" stroke-width="0.6" stroke-linecap="round"/><polyline points="490.4111,808.1865 486.2905,806.4987" fill="none" stroke="#c6a05e" stroke-width="0.6" stroke-linecap="round"/><polyline points="486.2905,806.4987 482.4,804.6799" fill="none" stroke="#c6a05e" stroke-width="0.6" stroke-linecap="round"/><polyline points="482.4,804.6799 478.7561,802.7381" fill="none" stroke="#c6a05e" stroke-width="0.6" stroke-linecap="round"/><polyline points="478.7561,802.7381 475.3745,800.6815" fill="none" stroke="#c6a05e" stroke-width="0.6" stroke-linecap="round"/><polyline points="475.3745,800.6815 472.2696,798.5188" fill="none" stroke="#c6a05e" stroke-width="0.6" stroke-linecap="round"/><polyline points="472.2696,798.5188 469.4547,796.2595" fill="none" stroke="#c6a05e" stroke-width="0.6" stroke-linecap="round"/><polyline points="469.4547,796.2595 466.9419,793.9131" fill="none" stroke="#c6a05e" stroke-width="0.6" stroke-linecap="round"/><polyline points="466.9419,793.9131 464.742,791.4897" fill="none" stroke="#c6a05e" stroke-width="0.6" stroke-linecap="round"/><polyline points="464.742,791.4897 462.8643,788.9997" fill="none" stroke="#c6a05e" stroke-width="0.6" stroke-linecap="round"/><polyline points="462.8643,788.9997 461.3169,786.4537" fill="none" stroke="#c6a05e" stroke-width="0.6" stroke-linecap="round"/><polyline points="461.3169,786.4537 460.1065,783.8626" fill="none" stroke="#c6a05e" stroke-width="0.6" stroke-linecap="round"/><polyline points="460.1065,783.8626 459.2382,781.2376" fill="none" stroke="#c6a05e" stroke-width="0.6" stroke-linecap="round"/><polyline points="459.2382,781.2376 458.7157,778.5899" fill="none" stroke="#c6a05e" stroke-width="0.6" stroke-linecap="round"/><polyline points="458.7157,778.5899 458.5413,775.9307" fill="none" stroke="#c6a05e" stroke-width="0.6" stroke-linecap="round"/><polyline points="458.5413,775.9307 458.7157,773.2716" fill="none" stroke="#c6a05e" stroke-width="0.6" stroke-linecap="round"/><polyline points="458.7157,773.2716 459.2382,770.6239" fill="none" stroke="#c6a05e" stroke-width="0.6" stroke-linecap="round"/><polyline points="459.2382,770.6239 460.1065,767.9989" fill="none" stroke="#c6a05e" stroke-width="0.6" stroke-linecap="round"/><polyline points="460.1065,767.9989 461.3169,765.4078" fill="none" stroke="#c6a05e" stroke-width="0.6" stroke-linecap="round"/><polyline points="461.3169,765.4078 462.8643,762.8618" fill="none" stroke="#c6a05e" stroke-width="0.6" stroke-linecap="round"/><polyline points="462.8643,762.8618 464.742,760.3718" fill="none" stroke="#c6a05e" stroke-width="0.6" stroke-linecap="round"/><polyline points="464.742,760.3718 466.9419,757.9484" fill="none" stroke="#c6a05e" stroke-width="0.6" stroke-linecap="round"/><polyline points="466.9419,757.9484 469.4547,755.602" fill="none" stroke="#c6a05e" stroke-width="0.6" stroke-linecap="round"/><polyline points="469.4547,755.602 472.2696,753.3426" fill="none" stroke="#c6a05e" stroke-width="0.6" stroke-linecap="round"/><polyline points="472.2696,753.3426 475.3745,751.18" fill="none" stroke="#c6a05e" stroke-width="0.6" stroke-linecap="round"/><polyline points="475.3745,751.18 478.7561,749.1234" fill="none" stroke="#c6a05e" stroke-width="0.6" stroke-linecap="round"/><polyline points="478.7561,749.1234 482.4,747.1815" fill="none" stroke="#c6a05e" stroke-width="0.6" stroke-linecap="round"/><polyline points="482.4,747.1815 486.2905,745.3628" fill="none" stroke="#c6a05e" stroke-width="0.6" stroke-linecap="round"/><polyline points="486.2905,745.3628 490.4111,743.675" fill="none" stroke="#c6a05e" stroke-width="0.6" stroke-linecap="round"/><polyline points="490.4111,743.675 494.744,742.1253" fill="none" stroke="#c6a05e" stroke-width="0.6" stroke-linecap="round"/><polyline points="494.744,742.1253 499.2706,740.7203" fill="none" stroke="#c6a05e" stroke-width="0.6" stroke-linecap="round"/><polyline points="499.2706,740.7203 503.9717,739.4661" fill="none" stroke="#c6a05e" stroke-width="0.6" stroke-linecap="round"/><polyline points="503.9717,739.4661 508.8271,738.3681" fill="none" stroke="#c6a05e" stroke-width="0.6" stroke-linecap="round"/><polyline points="508.8271,738.3681 513.816,737.4309" fill="none" stroke="#c6a05e" stroke-width="0.6" stroke-linecap="round"/><polyline points="513.816,737.4309 518.9169,736.6586" fill="none" stroke="#c6a05e" stroke-width="0.6" stroke-linecap="round"/><polyline points="518.9169,736.6586 524.1082,736.0545" fill="none" stroke="#c6a05e" stroke-width="0.6" stroke-linecap="round"/><polyline points="524.1082,736.0545 529.3675,735.6211" fill="none" stroke="#c6a05e" stroke-width="0.6" stroke-linecap="round"/><polyline points="529.3675,735.6211 534.6723,735.3603" fill="none" stroke="#c6a05e" stroke-width="0.6" stroke-linecap="round"/><polyline points="534.6723,735.3603 540,735.2732" fill="none" stroke="#c6a05e" stroke-width="0.6" stroke-linecap="round"/><polyline points="540,735.2732 545.3277,735.3603" fill="none" stroke="#c6a05e" stroke-width="0.6" stroke-linecap="round"/><polyline points="545.3277,735.3603 550.6325,735.6211" fill="none" stroke="#c6a05e" stroke-width="0.6" stroke-linecap="round"/><polyline points="550.6325,735.6211 555.8918,736.0545" fill="none" stroke="#c6a05e" stroke-width="0.6" stroke-linecap="round"/><polyline points="555.8918,736.0545 561.0831,736.6586" fill="none" stroke="#c6a05e" stroke-width="0.6" stroke-linecap="round"/><polyline points="561.0831,736.6586 566.184,737.4309" fill="none" stroke="#c6a05e" stroke-width="0.6" stroke-linecap="round"/><polyline points="566.184,737.4309 571.1729,738.3681" fill="none" stroke="#c6a05e" stroke-width="0.6" stroke-linecap="round"/><polyline points="571.1729,738.3681 576.0283,739.4661" fill="none" stroke="#c6a05e" stroke-width="0.6" stroke-linecap="round"/><polyline points="576.0283,739.4661 580.7294,740.7203" fill="none" stroke="#c6a05e" stroke-width="0.6" stroke-linecap="round"/><polyline points="580.7294,740.7203 585.256,742.1253" fill="none" stroke="#c6a05e" stroke-width="0.6" stroke-linecap="round"/><polyline points="585.256,742.1253 589.5889,743.675" fill="none" stroke="#c6a05e" stroke-width="0.6" stroke-linecap="round"/><polyline points="589.5889,743.675 593.7095,745.3628" fill="none" stroke="#c6a05e" stroke-width="0.6" stroke-linecap="round"/><polyline points="593.7095,745.3628 597.6,747.1815" fill="none" stroke="#c6a05e" stroke-width="0.6" stroke-linecap="round"/><polyline points="597.6,747.1815 601.2439,749.1234" fill="none" stroke="#c6a05e" stroke-width="0.6" stroke-linecap="round"/><polyline points="601.2439,749.1234 604.6255,751.18" fill="none" stroke="#c6a05e" stroke-width="0.6" stroke-linecap="round"/><polyline points="604.6255,751.18 607.7304,753.3426" fill="none" stroke="#c6a05e" stroke-width="0.6" stroke-linecap="round"/><polyline points="607.7304,753.3426 610.5453,755.602" fill="none" stroke="#c6a05e" stroke-width="0.6" stroke-linecap="round"/><polyline points="610.5453,755.602 613.0581,757.9484" fill="none" stroke="#c6a05e" stroke-width="0.6" stroke-linecap="round"/><polyline points="613.0581,757.9484 615.258,760.3718" fill="none" stroke="#c6a05e" stroke-width="0.6" stroke-linecap="round"/><polyline points="615.258,760.3718 617.1357,762.8618" fill="none" stroke="#c6a05e" stroke-width="0.6" stroke-linecap="round"/><polyline points="617.1357,762.8618 618.6831,765.4078" fill="none" stroke="#c6a05e" stroke-width="0.6" stroke-linecap="round"/><polyline points="618.6831,765.4078 619.8935,767.9989" fill="none" stroke="#c6a05e" stroke-width="0.6" stroke-linecap="round"/><polyline points="619.8935,767.9989 620.7618,770.6239" fill="none" stroke="#c6a05e" stroke-width="0.6" stroke-linecap="round"/><polyline points="620.7618,770.6239 621.2843,773.2716" fill="none" stroke="#c6a05e" stroke-width="0.6" stroke-linecap="round"/><polyline points="621.2843,773.2716 621.4587,775.9307" fill="none" stroke="#c6a05e" stroke-width="0.6" stroke-linecap="round"/><polyline points="621.4587,775.9307 621.2843,778.5899" fill="none" stroke="#c6a05e" stroke-width="0.6" stroke-linecap="round"/><polyline points="621.2843,778.5899 620.7618,781.2376" fill="none" stroke="#c6a05e" stroke-width="0.6" stroke-linecap="round"/><polyline points="620.7618,781.2376 619.8935,783.8626" fill="none" stroke="#c6a05e" stroke-width="0.6" stroke-linecap="round"/><polyline points="619.8935,783.8626 618.6831,786.4537" fill="none" stroke="#c6a05e" stroke-width="0.6" stroke-linecap="round"/><polyline points="618.6831,786.4537 617.1357,788.9997" fill="none" stroke="#c6a05e" stroke-width="0.6" stroke-linecap="round"/><polyline points="617.1357,788.9997 615.258,791.4897" fill="none" stroke="#c6a05e" stroke-width="0.6" stroke-linecap="round"/><polyline points="615.258,791.4897 613.0581,793.9131" fill="none" stroke="#c6a05e" stroke-width="0.6" stroke-linecap="round"/><polyline points="613.0581,793.9131 610.5453,796.2595" fill="none" stroke="#c6a05e" stroke-width="0.6" stroke-linecap="round"/><polyline points="610.5453,796.2595 607.7304,798.5188" fill="none" stroke="#c6a05e" stroke-width="0.6" stroke-linecap="round"/><polyline points="607.7304,798.5188 604.6255,800.6815" fill="none" stroke="#c6a05e" stroke-width="0.6" stroke-linecap="round"/><polyline points="604.6255,800.6815 601.2439,802.7381" fill="none" stroke="#c6a05e" stroke-width="0.6" stroke-linecap="round"/><polyline points="601.2439,802.7381 597.6,804.6799" fill="none" stroke="#c6a05e" stroke-width="0.6" stroke-linecap="round"/><polyline points="657.6,834.627 649.6568,838.3403" fill="none" stroke="#c6a05e" stroke-width="0.6" stroke-linecap="round"/><polyline points="649.6568,838.3403 641.244,841.7863" fill="none" stroke="#c6a05e" stroke-width="0.6" stroke-linecap="round"/><polyline points="641.244,841.7863 632.3977,844.9503" fill="none" stroke="#c6a05e" stroke-width="0.6" stroke-linecap="round"/><polyline points="632.3977,844.9503 623.1558,847.8187" fill="none" stroke="#c6a05e" stroke-width="0.6" stroke-linecap="round"/><polyline points="623.1558,847.8187 613.5577,850.3793" fill="none" stroke="#c6a05e" stroke-width="0.6" stroke-linecap="round"/><polyline points="613.5577,850.3793 603.6447,852.6211" fill="none" stroke="#c6a05e" stroke-width="0.6" stroke-linecap="round"/><polyline points="603.6447,852.6211 593.4591,854.5345" fill="none" stroke="#c6a05e" stroke-width="0.6" stroke-linecap="round"/><polyline points="593.4591,854.5345 583.0446,856.1114" fill="none" stroke="#c6a05e" stroke-width="0.6" stroke-linecap="round"/><polyline points="583.0446,856.1114 572.4458,857.3448" fill="none" stroke="#c6a05e" stroke-width="0.6" stroke-linecap="round"/><polyline points="572.4458,857.3448 561.708,858.2297" fill="none" stroke="#c6a05e" stroke-width="0.6" stroke-linecap="round"/><polyline points="561.708,858.2297 550.8773,858.7621" fill="none" stroke="#c6a05e" stroke-width="0.6" stroke-linecap="round"/><polyline points="550.8773,858.7621 540,858.9398" fill="none" stroke="#c6a05e" stroke-width="0.6" stroke-linecap="round"/><polyline points="540,858.9398 529.1227,858.7621" fill="none" stroke="#c6a05e" stroke-width="0.6" stroke-linecap="round"/><polyline points="529.1227,858.7621 518.292,858.2297" fill="none" stroke="#c6a05e" stroke-width="0.6" stroke-linecap="round"/><polyline points="518.292,858.2297 507.5542,857.3448" fill="none" stroke="#c6a05e" stroke-width="0.6" stroke-linecap="round"/><polyline points="507.5542,857.3448 496.9554,856.1114" fill="none" stroke="#c6a05e" stroke-width="0.6" stroke-linecap="round"/><polyline points="496.9554,856.1114 486.5409,854.5345" fill="none" stroke="#c6a05e" stroke-width="0.6" stroke-linecap="round"/><polyline points="486.5409,854.5345 476.3553,852.6211" fill="none" stroke="#c6a05e" stroke-width="0.6" stroke-linecap="round"/><polyline points="476.3553,852.6211 466.4423,850.3793" fill="none" stroke="#c6a05e" stroke-width="0.6" stroke-linecap="round"/><polyline points="466.4423,850.3793 456.8442,847.8187" fill="none" stroke="#c6a05e" stroke-width="0.6" stroke-linecap="round"/><polyline points="456.8442,847.8187 447.6023,844.9503" fill="none" stroke="#c6a05e" stroke-width="0.6" stroke-linecap="round"/><polyline points="447.6023,844.9503 438.756,841.7863" fill="none" stroke="#c6a05e" stroke-width="0.6" stroke-linecap="round"/><polyline points="438.756,841.7863 430.3432,838.3403" fill="none" stroke="#c6a05e" stroke-width="0.6" stroke-linecap="round"/><polyline points="430.3432,838.3403 422.4,834.627" fill="none" stroke="#c6a05e" stroke-width="0.6" stroke-linecap="round"/><polyline points="422.4,834.627 414.9604,830.6624" fill="none" stroke="#c6a05e" stroke-width="0.6" stroke-linecap="round"/><polyline points="414.9604,830.6624 408.0562,826.4635" fill="none" stroke="#c6a05e" stroke-width="0.6" stroke-linecap="round"/><polyline points="408.0562,826.4635 401.717,822.0481" fill="none" stroke="#c6a05e" stroke-width="0.6" stroke-linecap="round"/><polyline points="401.717,822.0481 395.97,817.4353" fill="none" stroke="#c6a05e" stroke-width="0.6" stroke-linecap="round"/><polyline points="395.97,817.4353 390.8397,812.6447" fill="none" stroke="#c6a05e" stroke-width="0.6" stroke-linecap="round"/><polyline points="390.8397,812.6447 386.3482,807.6969" fill="none" stroke="#c6a05e" stroke-width="0.6" stroke-linecap="round"/><polyline points="386.3482,807.6969 382.5146,802.6131" fill="none" stroke="#c6a05e" stroke-width="0.6" stroke-linecap="round"/><polyline points="382.5146,802.6131 379.3554,797.4151" fill="none" stroke="#c6a05e" stroke-width="0.6" stroke-linecap="round"/><polyline points="379.3554,797.4151 376.8841,792.125" fill="none" stroke="#c6a05e" stroke-width="0.6" stroke-linecap="round"/><polyline points="376.8841,792.125 375.1113,786.7656" fill="none" stroke="#c6a05e" stroke-width="0.6" stroke-linecap="round"/><polyline points="375.1113,786.7656 374.0446,781.3598" fill="none" stroke="#c6a05e" stroke-width="0.6" stroke-linecap="round"/><polyline points="374.0446,781.3598 373.6885,775.9307" fill="none" stroke="#c6a05e" stroke-width="0.6" stroke-linecap="round"/><polyline points="373.6885,775.9307 374.0446,770.5017" fill="none" stroke="#c6a05e" stroke-width="0.6" stroke-linecap="round"/><polyline points="374.0446,770.5017 375.1113,765.0959" fill="none" stroke="#c6a05e" stroke-width="0.6" stroke-linecap="round"/><polyline points="375.1113,765.0959 376.8841,759.7365" fill="none" stroke="#c6a05e" stroke-width="0.6" stroke-linecap="round"/><polyline points="376.8841,759.7365 379.3554,754.4464" fill="none" stroke="#c6a05e" stroke-width="0.6" stroke-linecap="round"/><polyline points="379.3554,754.4464 382.5146,749.2483" fill="none" stroke="#c6a05e" stroke-width="0.6" stroke-linecap="round"/><polyline points="382.5146,749.2483 386.3482,744.1645" fill="none" stroke="#c6a05e" stroke-width="0.6" stroke-linecap="round"/><polyline points="386.3482,744.1645 390.8397,739.2168" fill="none" stroke="#c6a05e" stroke-width="0.6" stroke-linecap="round"/><polyline points="390.8397,739.2168 395.97,734.4262" fill="none" stroke="#c6a05e" stroke-width="0.6" stroke-linecap="round"/><polyline points="395.97,734.4262 401.717,729.8134" fill="none" stroke="#c6a05e" stroke-width="0.6" stroke-linecap="round"/><polyline points="401.717,729.8134 408.0562,725.398" fill="none" stroke="#c6a05e" stroke-width="0.6" stroke-linecap="round"/><polyline points="408.0562,725.398 414.9604,721.1991" fill="none" stroke="#c6a05e" stroke-width="0.6" stroke-linecap="round"/><polyline points="414.9604,721.1991 422.4,717.2345" fill="none" stroke="#c6a05e" stroke-width="0.6" stroke-linecap="round"/><polyline points="422.4,717.2345 430.3432,713.5212" fill="none" stroke="#c6a05e" stroke-width="0.6" stroke-linecap="round"/><polyline points="430.3432,713.5212 438.756,710.0752" fill="none" stroke="#c6a05e" stroke-width="0.6" stroke-linecap="round"/><polyline points="438.756,710.0752 447.6023,706.9112" fill="none" stroke="#c6a05e" stroke-width="0.6" stroke-linecap="round"/><polyline points="447.6023,706.9112 456.8442,704.0428" fill="none" stroke="#c6a05e" stroke-width="0.6" stroke-linecap="round"/><polyline points="456.8442,704.0428 466.4423,701.4822" fill="none" stroke="#c6a05e" stroke-width="0.6" stroke-linecap="round"/><polyline points="466.4423,701.4822 476.3553,699.2404" fill="none" stroke="#c6a05e" stroke-width="0.6" stroke-linecap="round"/><polyline points="476.3553,699.2404 486.5409,697.3269" fill="none" stroke="#c6a05e" stroke-width="0.6" stroke-linecap="round"/><polyline points="486.5409,697.3269 496.9554,695.7501" fill="none" stroke="#c6a05e" stroke-width="0.6" stroke-linecap="round"/><polyline points="496.9554,695.7501 507.5542,694.5167" fill="none" stroke="#c6a05e" stroke-width="0.6" stroke-linecap="round"/><polyline points="507.5542,694.5167 518.292,693.6318" fill="none" stroke="#c6a05e" stroke-width="0.6" stroke-linecap="round"/><polyline points="518.292,693.6318 529.1227,693.0994" fill="none" stroke="#c6a05e" stroke-width="0.6" stroke-linecap="round"/><polyline points="529.1227,693.0994 540,692.9217" fill="none" stroke="#c6a05e" stroke-width="0.6" stroke-linecap="round"/><polyline points="540,692.9217 550.8773,693.0994" fill="none" stroke="#c6a05e" stroke-width="0.6" stroke-linecap="round"/><polyline points="550.8773,693.0994 561.708,693.6318" fill="none" stroke="#c6a05e" stroke-width="0.6" stroke-linecap="round"/><polyline points="561.708,693.6318 572.4458,694.5167" fill="none" stroke="#c6a05e" stroke-width="0.6" stroke-linecap="round"/><polyline points="572.4458,694.5167 583.0446,695.7501" fill="none" stroke="#c6a05e" stroke-width="0.6" stroke-linecap="round"/><polyline points="583.0446,695.7501 593.4591,697.3269" fill="none" stroke="#c6a05e" stroke-width="0.6" stroke-linecap="round"/><polyline points="593.4591,697.3269 603.6447,699.2404" fill="none" stroke="#c6a05e" stroke-width="0.6" stroke-linecap="round"/><polyline points="603.6447,699.2404 613.5577,701.4822" fill="none" stroke="#c6a05e" stroke-width="0.6" stroke-linecap="round"/><polyline points="613.5577,701.4822 623.1558,704.0428" fill="none" stroke="#c6a05e" stroke-width="0.6" stroke-linecap="round"/><polyline points="623.1558,704.0428 632.3977,706.9112" fill="none" stroke="#c6a05e" stroke-width="0.6" stroke-linecap="round"/><polyline points="632.3977,706.9112 641.244,710.0752" fill="none" stroke="#c6a05e" stroke-width="0.6" stroke-linecap="round"/><polyline points="641.244,710.0752 649.6568,713.5212" fill="none" stroke="#c6a05e" stroke-width="0.6" stroke-linecap="round"/><polyline points="649.6568,713.5212 657.6,717.2345" fill="none" stroke="#c6a05e" stroke-width="0.6" stroke-linecap="round"/><polyline points="657.6,717.2345 665.0396,721.1991" fill="none" stroke="#c6a05e" stroke-width="0.6" stroke-linecap="round"/><polyline points="665.0396,721.1991 671.9438,725.398" fill="none" stroke="#c6a05e" stroke-width="0.6" stroke-linecap="round"/><polyline points="671.9438,725.398 678.283,729.8134" fill="none" stroke="#c6a05e" stroke-width="0.6" stroke-linecap="round"/><polyline points="678.283,729.8134 684.03,734.4262" fill="none" stroke="#c6a05e" stroke-width="0.6" stroke-linecap="round"/><polyline points="684.03,734.4262 689.1603,739.2168" fill="none" stroke="#c6a05e" stroke-width="0.6" stroke-linecap="round"/><polyline points="689.1603,739.2168 693.6518,744.1645" fill="none" stroke="#c6a05e" stroke-width="0.6" stroke-linecap="round"/><polyline points="693.6518,744.1645 697.4854,749.2483" fill="none" stroke="#c6a05e" stroke-width="0.6" stroke-linecap="round"/><polyline points="697.4854,749.2483 700.6446,754.4464" fill="none" stroke="#c6a05e" stroke-width="0.6" stroke-linecap="round"/><polyline points="700.6446,754.4464 703.1159,759.7365" fill="none" stroke="#c6a05e" stroke-width="0.6" stroke-linecap="round"/><polyline points="703.1159,759.7365 704.8887,765.0959" fill="none" stroke="#c6a05e" stroke-width="0.6" stroke-linecap="round"/><polyline points="704.8887,765.0959 705.9554,770.5017" fill="none" stroke="#c6a05e" stroke-width="0.6" stroke-linecap="round"/><polyline points="705.9554,770.5017 706.3115,775.9307" fill="none" stroke="#c6a05e" stroke-width="0.6" stroke-linecap="round"/><polyline points="706.3115,775.9307 705.9554,781.3598" fill="none" stroke="#c6a05e" stroke-width="0.6" stroke-linecap="round"/><polyline points="705.9554,781.3598 704.8887,786.7656" fill="none" stroke="#c6a05e" stroke-width="0.6" stroke-linecap="round"/><polyline points="704.8887,786.7656 703.1159,792.125" fill="none" stroke="#c6a05e" stroke-width="0.6" stroke-linecap="round"/><polyline points="703.1159,792.125 700.6446,797.4151" fill="none" stroke="#c6a05e" stroke-width="0.6" stroke-linecap="round"/><polyline points="700.6446,797.4151 697.4854,802.6131" fill="none" stroke="#c6a05e" stroke-width="0.6" stroke-linecap="round"/><polyline points="697.4854,802.6131 693.6518,807.6969" fill="none" stroke="#c6a05e" stroke-width="0.6" stroke-linecap="round"/><polyline points="693.6518,807.6969 689.1603,812.6447" fill="none" stroke="#c6a05e" stroke-width="0.6" stroke-linecap="round"/><polyline points="689.1603,812.6447 684.03,817.4353" fill="none" stroke="#c6a05e" stroke-width="0.6" stroke-linecap="round"/><polyline points="684.03,817.4353 678.283,822.0481" fill="none" stroke="#c6a05e" stroke-width="0.6" stroke-linecap="round"/><polyline points="678.283,822.0481 671.9438,826.4635" fill="none" stroke="#c6a05e" stroke-width="0.6" stroke-linecap="round"/><polyline points="671.9438,826.4635 665.0396,830.6624" fill="none" stroke="#c6a05e" stroke-width="0.6" stroke-linecap="round"/><polyline points="665.0396,830.6624 657.6,834.627" fill="none" stroke="#c6a05e" stroke-width="0.6" stroke-linecap="round"/><polygon points="887.4239,780.7657 885.7934,782.7305 885.7934,782.1423 887.4239,780.1775" fill="#21385a" stroke="#21385a" stroke-width=".65" stroke-linejoin="round" shape-rendering="crispEdges"/><polygon points="888.7529,776.5778 888.4186,778.6979 888.4186,778.1096 888.7529,775.9896" fill="#203859" stroke="#203859" stroke-width=".65" stroke-linejoin="round" shape-rendering="crispEdges"/><polygon points="888.4186,778.6979 887.4239,780.7657 887.4239,780.1775 888.4186,778.1096" fill="#213859" stroke="#213859" stroke-width=".65" stroke-linejoin="round" shape-rendering="crispEdges"/><polygon points="533.6347,793.9193 529.7425,793.4663 525.9722,792.8045 522.3687,791.9418 518.9747,790.8884 515.8307,789.6569 512.9741,788.2618 510.4386,786.7199 508.2546,785.0493 506.448,783.2699 505.0402,781.403 504.0479,779.4707 503.4831,777.4959 503.3523,775.5022 503.6572,773.5132 504.3941,771.5527 505.5542,769.6438 507.1239,767.8093 509.0843,766.071 511.4122,764.4495 514.08,762.9642 517.0559,761.6327 520.3045,760.4707 523.7873,759.4923 527.4628,758.7088 531.2873,758.1298 535.2154,757.762 539.2003,757.6098 543.1948,757.6751 547.1513,757.957 551.0228,758.4522 554.7633,759.1549 558.3282,760.0566 561.6753,761.1467 564.7647,762.4122 567.5598,763.838 570.0272,765.4072 572.1377,767.1012 573.8661,768.8998 575.192,770.7816 576.0995,772.7243 577.4802,772.3073 575.747,771.2561 573.8402,770.2825 571.7738,769.3938 569.5629,768.5965 567.2236,767.8963 564.773,767.2984 562.229,766.8072 559.6103,766.4262 556.936,766.1583 554.2256,766.0053 551.4989,765.9685 548.7758,766.0481 546.0764,766.2434 543.4202,766.5532 540.8268,766.975 538.315,767.5059 535.9032,768.1419 533.6091,768.8784 531.4495,769.71 529.44,770.6306 527.5954,771.6336 525.9293,772.7115 524.4537,773.8566 523.1794,775.0603 522.1158,776.314 521.2706,777.6084 520.6501,778.9342 520.2587,780.2815 520.0993,781.6406 520.1731,783.0016 520.4795,784.3544 521.0163,785.6892 521.7796,786.9962 522.7638,788.266 523.9616,789.4891 525.3645,790.6567 526.962,791.7602 528.7425,792.7916 530.693,793.7433 532.7993,794.6084" fill="#c6a05e" stroke="#c6a05e" stroke-width=".65" stroke-linejoin="round" shape-rendering="crispEdges"/><polygon points="654.72,833.1602 662.4,832.2018 660.48,836.0351 652.8,836.9934" fill="#c6a05e" stroke="#c6a05e" stroke-width=".65" stroke-linejoin="round" shape-rendering="crispEdges"/><polygon points="374.8138,792.5717 382.4938,791.6134 380.5738,795.4467 372.8938,796.405" fill="#c6a05e" stroke="#c6a05e" stroke-width=".65" stroke-linejoin="round" shape-rendering="crispEdges"/><polygon points="573.3997,693.4539 581.0797,692.4956 579.1597,696.3288 571.4797,697.2871" fill="#c6a05e" stroke="#c6a05e" stroke-width=".65" stroke-linejoin="round" shape-rendering="crispEdges"/><polygon points="885.7934,782.7305 883.5672,784.5437 883.5672,783.9555 885.7934,782.1423" fill="#21385a" stroke="#21385a" stroke-width=".65" stroke-linejoin="round" shape-rendering="crispEdges"/><polygon points="191.5814,778.6979 191.2471,776.5778 191.2471,775.9896 191.5814,778.1096" fill="#1f3554" stroke="#1f3554" stroke-width=".65" stroke-linejoin="round" shape-rendering="crispEdges"/><polygon points="883.5672,784.5437 880.8,786.1609 880.8,785.5726 883.5672,783.9555" fill="#21385a" stroke="#21385a" stroke-width=".65" stroke-linejoin="round" shape-rendering="crispEdges"/><polygon points="192.5761,780.7657 191.5814,778.6979 191.5814,778.1096 192.5761,780.1775" fill="#1f3554" stroke="#1f3554" stroke-width=".65" stroke-linejoin="round" shape-rendering="crispEdges"/><polygon points="880.8,786.1609 559.2,946.6772 559.2,946.089 880.8,785.5726" fill="#21385a" stroke="#21385a" stroke-width=".65" stroke-linejoin="round" shape-rendering="crispEdges"/><polygon points="194.2066,782.7305 192.5761,780.7657 192.5761,780.1775 194.2066,782.1423" fill="#1f3554" stroke="#1f3554" stroke-width=".65" stroke-linejoin="round" shape-rendering="crispEdges"/><polygon points="559.2,946.6772 555.9601,948.0584 555.9601,947.4701 559.2,946.089" fill="#21385a" stroke="#21385a" stroke-width=".65" stroke-linejoin="round" shape-rendering="crispEdges"/><polygon points="196.4328,784.5437 194.2066,782.7305 194.2066,782.1423 196.4328,783.9555" fill="#1f3554" stroke="#1f3554" stroke-width=".65" stroke-linejoin="round" shape-rendering="crispEdges"/><polygon points="555.9601,948.0584 552.3272,949.1695 552.3272,948.5813 555.9601,947.4701" fill="#21385a" stroke="#21385a" stroke-width=".65" stroke-linejoin="round" shape-rendering="crispEdges"/><polygon points="199.2,786.1609 196.4328,784.5437 196.4328,783.9555 199.2,785.5726" fill="#1f3554" stroke="#1f3554" stroke-width=".65" stroke-linejoin="round" shape-rendering="crispEdges"/><polygon points="552.3272,949.1695 548.3907,949.9833 548.3907,949.3951 552.3272,948.5813" fill="#21385a" stroke="#21385a" stroke-width=".65" stroke-linejoin="round" shape-rendering="crispEdges"/><polygon points="520.8,946.6772 199.2,786.1609 199.2,785.5726 520.8,946.089" fill="#1f3554" stroke="#1f3554" stroke-width=".65" stroke-linejoin="round" shape-rendering="crispEdges"/><polygon points="548.3907,949.9833 544.2476,950.4798 544.2476,949.8916 548.3907,949.3951" fill="#213859" stroke="#213859" stroke-width=".65" stroke-linejoin="round" shape-rendering="crispEdges"/><polygon points="524.0399,948.0584 520.8,946.6772 520.8,946.089 524.0399,947.4701" fill="#1f3555" stroke="#1f3555" stroke-width=".65" stroke-linejoin="round" shape-rendering="crispEdges"/><polygon points="544.2476,950.4798 540,950.6467 540,950.0584 544.2476,949.8916" fill="#203859" stroke="#203859" stroke-width=".65" stroke-linejoin="round" shape-rendering="crispEdges"/><polygon points="527.6728,949.1695 524.0399,948.0584 524.0399,947.4701 527.6728,948.5813" fill="#1f3656" stroke="#1f3656" stroke-width=".65" stroke-linejoin="round" shape-rendering="crispEdges"/><polygon points="540,950.6467 535.7524,950.4798 535.7524,949.8916 540,950.0584" fill="#203758" stroke="#203758" stroke-width=".65" stroke-linejoin="round" shape-rendering="crispEdges"/><polygon points="531.6093,949.9833 527.6728,949.1695 527.6728,948.5813 531.6093,949.3951" fill="#203657" stroke="#203657" stroke-width=".65" stroke-linejoin="round" shape-rendering="crispEdges"/><polygon points="535.7524,950.4798 531.6093,949.9833 531.6093,949.3951 535.7524,949.8916" fill="#203757" stroke="#203757" stroke-width=".65" stroke-linejoin="round" shape-rendering="crispEdges"/><defs><pattern id="material-1-weave" width="3" height="3" patternUnits="userSpaceOnUse"><path d="M0 0L3 3 M-1 2L1 4" stroke="#7090ab" stroke-width=".28"/></pattern><clipPath id="material-1"><polygon points="880.8,766.4065 883.56716,768.0236 885.79341,769.83685 887.42394,771.80161 888.4186,773.86948 888.7529,775.98956 888.4186,778.10964 887.42394,780.17752 885.79341,782.14227 883.56716,783.95552 880.8,785.57263 559.2,946.08899 555.96007,947.47013 552.32716,948.5813 548.39071,949.39512 544.24765,949.89158 540,950.05843 535.75235,949.89158 531.60929,949.39512 527.67284,948.5813 524.03993,947.47013 520.8,946.08899 199.2,785.57263 196.43284,783.95552 194.20659,782.14227 192.57606,780.17752 191.5814,778.10964 191.2471,775.98956 191.5814,773.86948 192.57606,771.80161 194.20659,769.83685 196.43284,768.0236 199.2,766.4065 520.8,605.89013 524.03993,604.50899 527.67284,603.39783 531.60929,602.584 535.75235,602.08755 540,601.92069 544.24765,602.08755 548.39071,602.584 552.32716,603.39783 555.96007,604.50899 559.2,605.89013"/></clipPath></defs><rect x="0" y="0" width="1080" height="1073" fill="url(#material-1-weave)" clip-path="url(#material-1)" opacity=".18"/></svg>
