<svg xmlns="http://www.w3.org/2000/svg" width="718" height="366" viewBox="181 593 718 366"><defs><pattern id="weave-royal" width="3" height="3" patternUnits="userSpaceOnUse"><path d="M0 0L3 3" stroke="#b7717a" stroke-width=".3"/></pattern><clipPath id="rug-royal"><polygon points="888,770.0001458570235 889.7294736676243,771.0108367018181 891.1208821280412,772.1441202990042 892.1399642871348,773.372091445266 892.761626960009,774.6645134155805 892.970562748477,775.9895624917356 892.761626960009,777.3146115678907 892.1399642871351,778.6070335382051 891.1208821280412,779.8350046844671 889.7294736676245,780.968288281653 888,781.9789791264477 552,949.6826448983854 549.9750465066588,950.5458564278991 547.7044742630425,951.2403335094408 545.244192293386,951.7489758124253 542.6547809049897,952.0592588752663 540,952.1635424991861 537.3452190950103,952.0592588752663 534.755807706614,951.7489758124253 532.2955257369575,951.2403335094409 530.0249534933411,950.5458564278991 528,949.6826448983854 192,781.9789791264477 190.27052633237554,780.968288281653 188.87911787195878,779.8350046844671 187.860035712865,778.6070335382051 187.23837303999096,777.3146115678907 187.02943725152295,775.9895624917356 187.23837303999096,774.6645134155805 187.8600357128651,773.372091445266 188.87911787195878,772.1441202990042 190.2705263323756,771.0108367018182 192,770.0001458570235 528,602.2964800850858 530.0249534933412,601.433268555572 532.2955257369575,600.7387914740303 534.7558077066142,600.2301491710458 537.3452190950103,599.9198661082048 540,599.8155824842851 542.6547809049897,599.9198661082048 545.2441922933858,600.2301491710458 547.7044742630425,600.7387914740303 549.9750465066588,601.433268555572 552,602.2964800850858"/></clipPath></defs><polygon points="888,770.0001458570235 889.7294736676243,771.0108367018181 891.1208821280412,772.1441202990042 892.1399642871348,773.372091445266 892.761626960009,774.6645134155805 892.970562748477,775.9895624917356 892.761626960009,777.3146115678907 892.1399642871351,778.6070335382051 891.1208821280412,779.8350046844671 889.7294736676245,780.968288281653 888,781.9789791264477 552,949.6826448983854 549.9750465066588,950.5458564278991 547.7044742630425,951.2403335094408 545.244192293386,951.7489758124253 542.6547809049897,952.0592588752663 540,952.1635424991861 537.3452190950103,952.0592588752663 534.755807706614,951.7489758124253 532.2955257369575,951.2403335094409 530.0249534933411,950.5458564278991 528,949.6826448983854 192,781.9789791264477 190.27052633237554,780.968288281653 188.87911787195878,779.8350046844671 187.860035712865,778.6070335382051 187.23837303999096,777.3146115678907 187.02943725152295,775.9895624917356 187.23837303999096,774.6645134155805 187.8600357128651,773.372091445266 188.87911787195878,772.1441202990042 190.2705263323756,771.0108367018182 192,770.0001458570235 528,602.2964800850858 530.0249534933412,601.433268555572 532.2955257369575,600.7387914740303 534.7558077066142,600.2301491710458 537.3452190950103,599.9198661082048 540,599.8155824842851 542.6547809049897,599.9198661082048 545.2441922933858,600.2301491710458 547.7044742630425,600.7387914740303 549.9750465066588,601.433268555572 552,602.2964800850858" fill="#7f2737" stroke="#d0b992" stroke-width="1.5"/><polygon points="875.52,770.8996302402467 876.9727578808046,771.7486105498742 878.1415409875545,772.7005687715103 878.9975700011934,773.7320645343705 879.5197666464077,774.8176989894346 879.6952727087207,775.9307402134049 879.5197666464074,777.0437814373752 878.9975700011934,778.1294158924393 878.1415409875547,779.1609116552992 876.9727578808045,780.1128698769354 875.52,780.961850186563 550.0799999999999,943.394829319954 548.3790390655934,944.1199270047457 546.4717583809556,944.7032877532406 544.4051215264442,945.1305472877477 542.2300159601912,945.3911850605341 540,945.4787833046267 537.7699840398088,945.3911850605341 535.5948784735559,945.1305472877476 533.5282416190443,944.7032877532406 531.6209609344066,944.1199270047457 529.9200000000001,943.394829319954 204.47999999999996,780.961850186563 203.02724211919548,780.1128698769355 201.85845901244545,779.1609116552992 201.00242999880663,778.1294158924392 200.4802333535925,777.0437814373752 200.30472729127928,775.9307402134049 200.48023335359238,774.8176989894346 201.0024299988067,773.7320645343705 201.8584590124454,772.7005687715103 203.02724211919542,771.7486105498742 204.48000000000008,770.8996302402467 529.9200000000001,608.4666511068556 531.6209609344065,607.741553422064 533.5282416190444,607.1581926735689 535.5948784735559,606.730933139062 537.7699840398086,606.4702953662756 540,606.382697122183 542.2300159601914,606.4702953662756 544.4051215264441,606.730933139062 546.4717583809556,607.1581926735689 548.3790390655935,607.741553422064 550.0799999999999,608.4666511068556" fill="none" stroke="#c89b4b" stroke-width="2"/><rect width="1080" height="1073" fill="url(#weave-royal)" clip-path="url(#rug-royal)" opacity=".28"/><polygon points="583.2,797.4338178200375 578.757639730002,799.443427145421 573.9420222023227,801.2260299516113 568.7995244462387,802.7644587991149 563.3796715263159,804.0438977771395 557.7346595889659,805.0520251889143 551.9188531850232,805.7791322163654 545.9882617094008,806.2182164213413 540,806.3650491829202 534.0117382905992,806.2182164213413 528.0811468149768,805.7791322163653 522.2653404110342,805.0520251889143 516.6203284736844,804.0438977771395 511.20047555376135,802.7644587991148 506.05797779767727,801.2260299516113 501.2423602699981,799.443427145421 496.8,797.4338178200375 492.77367934552404,795.2165556118282 489.2021739754837,792.8129939679372 486.11987943897583,790.2462805009155 483.5564799173405,787.5411340645591 481.53666234926794,784.723606697833 480.0798786820833,781.8208327294964 479.2001585388603,778.8607674596818 478.9059741054823,775.8719179350741 479.20015853886025,772.8830684104661 480.07987868208323,769.9230031406518 481.536662349268,767.0202291723151 483.55647991734054,764.2027018055891 486.1198794389758,761.4975553692325 489.2021739754837,758.9308419022108 492.7736793455241,756.5272802583198 496.79999999999995,754.3100180501107 501.24236026999813,752.300408724727 506.0579777976772,750.5178059185367 511.2004755537613,748.9793770710332 516.6203284736844,747.6999380930087 522.2653404110342,746.6918106812338 528.0811468149768,745.9647036537827 534.0117382905992,745.5256194488068 540,745.378786687228 545.9882617094008,745.5256194488068 551.9188531850232,745.9647036537827 557.7346595889658,746.6918106812338 563.3796715263156,747.6999380930085 568.7995244462386,748.9793770710332 573.9420222023227,750.5178059185367 578.7576397300019,752.300408724727 583.2,754.3100180501107 587.2263206544759,756.5272802583198 590.7978260245163,758.9308419022108 593.8801205610241,761.4975553692325 596.4435200826595,764.2027018055891 598.463337650732,767.0202291723151 599.9201213179167,769.9230031406516 600.7998414611397,772.8830684104662 601.0940258945177,775.8719179350741 600.7998414611397,778.8607674596818 599.9201213179167,781.8208327294964 598.4633376507321,784.723606697833 596.4435200826595,787.5411340645588 593.8801205610242,790.2462805009156 590.7978260245163,792.8129939679371 587.226320654476,795.2165556118282" fill="none" stroke="#c89b4b" stroke-width=".9"/><polygon points="590.4,801.0274678008647 585.2172463516689,803.3720120138122 579.59902590271,805.4517152877007 573.5994451872783,807.2465489431216 567.2762834473683,808.7392277508169 560.6904361871268,809.9153763978876 553.9053287158604,810.7636679299138 546.9863053276342,811.2759328357191 540,811.4472377242279 533.0136946723658,811.2759328357191 526.0946712841396,810.7636679299138 519.3095638128732,809.9153763978876 512.7237165526317,808.739227750817 506.4005548127216,807.2465489431216 500.40097409729,805.4517152877008 494.7827536483312,803.3720120138122 489.6,801.0274678008647 484.90262590311136,798.4406618912873 480.73586963806434,795.636506640081 477.13985934547185,792.6420075952225 474.14922657023067,789.486003419473 471.7927727408126,786.1988881582928 470.09319179576374,782.8123185285667 469.06685162867035,779.3589090471165 468.723636456396,775.8719179350741 469.0668516286703,772.3849268230316 470.0931917957637,768.9315173415812 471.79277274081255,765.5449477118552 474.14922657023067,762.257832450675 477.1398593454718,759.1018282749257 480.7358696380643,756.107329230067 484.9026259031114,753.3031739788607 489.6,750.7163680692834 494.78275364833115,748.3718238563358 500.4009740972901,746.2921205824472 506.4005548127216,744.4972869270264 512.7237165526317,743.004608119331 519.3095638128732,741.8284594722604 526.0946712841396,740.9801679402341 533.0136946723658,740.4679030344289 540,740.2965981459203 546.9863053276342,740.467903034429 553.9053287158604,740.9801679402341 560.6904361871268,741.8284594722604 567.2762834473682,743.004608119331 573.5994451872784,744.4972869270265 579.5990259027099,746.2921205824472 585.2172463516688,748.3718238563359 590.4,750.7163680692834 595.0973740968885,753.3031739788609 599.2641303619357,756.107329230067 602.8601406545283,759.1018282749255 605.8507734297693,762.257832450675 608.2072272591874,765.5449477118551 609.9068082042363,768.9315173415812 610.9331483713297,772.3849268230316 611.276363543604,775.8719179350741 610.9331483713297,779.3589090471165 609.9068082042363,782.8123185285667 608.2072272591874,786.1988881582928 605.8507734297693,789.486003419473 602.8601406545282,792.6420075952225 599.2641303619357,795.636506640081 595.0973740968886,798.4406618912873" fill="none" stroke="#c89b4b" stroke-width=".9"/></svg>